#!OML:ASF I:\Actors\actors\Patient Classification 1\Patient 1\Session 1\Subject1.ASF
:FULLY-SPECIFIED
:DEGREES
736
root 0.901731 17.522 8.66758 7.1413 -0.464165 -7.90735
lowerback -1.2942 0.542553 7.16152
upperback -10.3221 1.21526 1.9997
thorax -10.2037 0.075462 -1.93735
lowerneck -12.4612 -2.93822 0.228867
upperneck 19.4695 -4.72952 2.76223
head 8.1534 -1.95991 0.374306
rclavicle 6.70898e-015 -2.31584e-014
rhumerus -10.6361 37.1281 -89.324
rradius 127.671
rwrist 12.0987
rhand -19.7044 312.362
rfingers 7.12502
rthumb 6.62523 -77.5141
lclavicle 6.70898e-015 -2.31584e-014
lhumerus -17.9015 -35.657 95.3551
lradius 124.826
lwrist 2.44532
lhand -48.5435 -39.723
lfingers 7.12502
lthumb -21.1905 349.139
rfemur -5.00803 23.1021 24.9304
rtibia 8.9692
rfoot -13.7714 -19.6927
rtoes 0.0103905
lfemur 3.03692 -33.7945 -10.9028
ltibia -1.68122
lfoot -11.4861 41.1297
ltoes -1.72878
737
root 0.899595 17.5065 8.66631 6.83749 -0.507928 -7.92327
lowerback -1.24142 0.545456 7.1712
upperback -10.0938 1.203 1.90531
thorax -9.97257 0.0750203 -2.04569
lowerneck -12.9037 -2.91539 0.329325
upperneck 19.7443 -4.81066 3.09759
head 8.33487 -1.94604 0.451685
rclavicle -1.39149e-015 2.78299e-015
rhumerus -12.5401 39.8377 -93.6912
rradius 126.286
rwrist 12.792
rhand -19.8294 312.502
rfingers 7.12502
rthumb 6.50449 -77.3778
lclavicle -1.39149e-015 2.78299e-015
lhumerus -20.1651 -39.4557 99.7906
lradius 123.131
lwrist 2.28079
lhand -48.3524 -40.9434
lfingers 7.12502
lthumb -21.0069 347.939
rfemur -4.80902 22.9648 25.0811
rtibia 9.26635
rfoot -13.9728 -19.5461
rtoes -0.16212
lfemur 3.29528 -33.3456 -11.0058
ltibia -1.55474
lfoot -11.353 40.6949
ltoes -2.16211
738
root 0.896508 17.4915 8.66452 6.64305 -0.572175 -7.91167
lowerback -1.31828 0.580447 7.1018
upperback -9.85116 1.2195 1.83545
thorax -9.64635 0.100342 -2.08437
lowerneck -13.5417 -2.93762 0.479657
upperneck 20.1937 -4.9271 3.18693
head 8.60463 -1.96253 0.431362
rclavicle -3.8266e-015 1.78906e-015
rhumerus -14.9319 41.739 -98.5842
rradius 124.76
rwrist 12.749
rhand -18.5242 314.423
rfingers 7.12502
rthumb 7.76439 -75.4145
lclavicle -3.8266e-015 1.78906e-015
lhumerus -22.3095 -43.153 103.936
lradius 121.186
lwrist 2.35246
lhand -47.1782 -41.0969
lfingers 7.12502
lthumb -19.8786 347.906
rfemur -4.7841 22.8024 25.1386
rtibia 9.62226
rfoot -14.1421 -19.342
rtoes -0.421105
lfemur 3.41954 -32.8705 -11.0571
ltibia -1.4472
lfoot -11.0585 40.3128
ltoes -3.05316
739
root 0.894186 17.4796 8.66171 6.55323 -0.677557 -7.9314
lowerback -1.26312 0.638123 7.07668
upperback -9.73669 1.2932 1.81898
thorax -9.54187 0.143274 -2.09445
lowerneck -14.1143 -3.00649 0.303877
upperneck 20.6238 -5.04595 3.33039
head 8.8672 -1.99968 0.483731
rclavicle -7.70291e-015 2.72335e-014
rhumerus -15.0735 45.3463 -100.795
rradius 123.434
rwrist 10.6387
rhand -19.584 312.811
rfingers 7.12502
rthumb 6.74141 -77.0617
lclavicle -7.70291e-015 2.72335e-014
lhumerus -24.5187 -46.692 107.584
lradius 119.122
lwrist 2.23845
lhand -45.226 -40.8961
lfingers 7.12502
lthumb -18.0011 348.291
rfemur -4.91113 22.6375 25.1725
rtibia 10.0108
rfoot -14.2553 -19.1027
rtoes -0.727736
lfemur 3.47609 -32.5749 -11.0551
ltibia -1.37342
lfoot -10.9142 40.1535
ltoes -3.48338
740
root 0.892169 17.4727 8.6582 6.54192 -0.761488 -7.98471
lowerback -0.772675 0.740399 7.23677
upperback -9.94656 1.4904 1.71653
thorax -10.0535 0.200303 -2.31211
lowerneck -14.4285 -3.19203 -0.00822231
upperneck 21.0638 -5.32398 3.60915
head 9.09884 -2.11082 0.589294
rclavicle -9.98893e-015 3.95581e-014
rhumerus -16.1605 45.9771 -103.006
rradius 122.893
rwrist 10.8397
rhand -16.2714 311.387
rfingers 7.12502
rthumb 9.93831 -78.3581
lclavicle -9.98893e-015 3.95581e-014
lhumerus -25.8496 -47.6176 109.22
lradius 118.686
lwrist 1.28233
lhand -40.9998 -40.004
lfingers 7.12502
lthumb -13.9315 349.509
rfemur -5.10192 22.488 25.2114
rtibia 10.3312
rfoot -14.3344 -18.9203
rtoes -0.900706
lfemur 3.4975 -32.5381 -11.0104
ltibia -1.35905
lfoot -10.9633 40.2251
ltoes -3.23762
741
root 0.889121 17.471 8.65467 6.57994 -0.807742 -7.982
lowerback -1.05803 0.683802 6.87367
upperback -9.60754 1.36957 1.97161
thorax -9.5139 0.208496 -1.82788
lowerneck -14.9348 -3.20743 -0.254688
upperneck 20.7753 -5.27 3.59248
head 9.09729 -2.10482 0.62393
rclavicle 9.93923e-015 -2.99171e-014
rhumerus -15.1288 46.5147 -102.124
rradius 124.398
rwrist 10.1807
rhand -15.7332 309.637
rfingers 7.12502
rthumb 10.4575 -80.0831
lclavicle 9.93923e-015 -2.99171e-014
lhumerus -24.5246 -47.2823 107.922
lradius 119.867
lwrist 5.27521
lhand -44.4706 -36.8349
lfingers 7.12502
lthumb -17.2742 352.417
rfemur -5.28102 22.3947 25.1724
rtibia 10.5133
rfoot -14.2396 -18.7989
rtoes -1.15306
lfemur 3.53793 -32.7671 -11.0485
ltibia -1.42923
lfoot -11.086 40.5086
ltoes -2.87815
